# This file uses centimeters as units for non-parametric coordinates.

mtllib rock_base_LP.mtl
g default
v -287.064297 -3.605701 -103.803266
v -183.730023 -3.605701 -42.116346
v -119.349770 -3.605701 -14.792066
v -40.616162 -3.605701 -38.883436
v 123.928623 -3.605701 -77.728040
v 231.875156 -3.605701 -96.428800
v -281.419201 62.019798 -86.217176
v -182.017827 62.019798 -17.455091
v -116.147070 62.019798 12.788073
v 10.240848 59.497875 -11.228559
v 186.341953 54.261898 -52.714673
v 275.848361 51.769512 -88.592573
v -287.064297 124.687866 -103.803266
v -183.730023 124.687866 -42.116346
v -108.052126 124.642128 -11.203870
v 68.493610 121.045975 -9.832776
v 214.492221 114.987305 -51.359601
v 275.259525 112.767609 -90.361417
v -287.697827 192.243332 -144.992673
v -193.530079 192.235001 -102.100080
v -94.480286 187.993835 -70.143384
v 82.190189 184.833984 -38.990247
v 214.410251 179.598007 -57.847425
v 257.520481 177.105621 -92.130277
v -262.919018 268.148071 -181.855878
v -190.351891 271.136719 -163.154447
v -102.687588 263.285614 -143.853437
v 23.737461 249.496918 -119.349836
v 168.955387 246.489258 -83.595502
v 228.047245 244.109085 -88.691236
v -233.146786 325.121948 -189.788190
v -182.017827 341.879944 -189.788190
v -116.308035 337.022217 -187.326978
v -32.493985 322.220184 -176.202161
v 65.990787 312.209930 -153.927244
v 151.478244 311.071991 -133.106626
v -230.022717 330.514526 -251.461667
v -175.790562 346.466858 -250.555425
v -112.754517 341.879944 -250.443097
v -40.044964 327.675476 -245.505910
v 53.601444 313.010864 -229.624532
v 136.493869 311.374725 -213.328061
v -203.350689 319.845154 -300.050161
v -151.392933 336.369354 -300.238630
v -95.515656 335.548492 -305.950765
v -36.540066 324.152527 -307.766194
v 36.058078 306.733704 -300.000194
v 108.665302 304.701721 -294.440206
v -161.392584 308.039093 -333.806196
v -107.711926 311.364014 -337.179495
v -66.883755 313.480621 -347.492879
v -25.562253 307.039307 -354.358522
v 28.108753 290.481842 -349.611909
v 89.001392 286.512543 -348.515111
v -116.500178 281.068634 -368.664167
v -71.007077 281.798340 -371.884740
v -41.689732 284.588562 -382.896909
v -14.028683 284.277039 -395.086461
v 24.105289 275.339508 -396.125974
v 76.105533 269.509216 -394.278394
v -76.560479 263.842224 -412.189000
v -57.544621 260.837891 -416.105985
v -31.765477 264.409119 -428.083196
v -9.640248 270.334991 -446.004987
v 22.711734 268.842529 -451.776410
v 61.636890 242.997711 -438.145284
v -109.245373 204.989136 -444.754636
v -68.896237 206.823471 -449.617948
v -43.776501 212.236298 -464.559125
v -19.338414 217.479248 -481.724286
v 20.282764 213.039825 -479.007459
v 75.202091 206.897141 -463.294568
v -147.664895 161.608612 -503.834394
v -110.606103 168.379944 -527.417905
v -81.614724 174.670609 -547.518247
v -43.864262 176.765671 -557.984998
v 18.984104 167.318222 -537.226209
v 89.765430 162.019806 -500.335859
v -195.060467 117.813774 -559.785398
v -152.447533 121.784492 -591.278333
v -111.449963 124.398811 -610.969922
v -55.785931 124.565323 -616.621930
v 35.937793 119.784813 -580.577802
v 125.775272 117.869423 -520.618955
v -220.078625 62.019798 -569.332898
v -166.873984 62.019798 -601.738447
v -116.627053 62.019798 -624.493055
v -54.726178 62.019798 -634.088483
v 52.247882 62.019798 -588.426801
v 153.729557 62.019798 -518.447156
v -229.984891 -3.605701 -543.667570
v -174.457135 -3.605701 -573.975889
v -120.814731 -3.605701 -600.737653
v -54.767331 -3.605701 -616.156812
v 47.952838 -3.605701 -578.287488
v 152.550296 -3.605701 -514.564161
v -260.722226 -3.605701 -471.458448
v 249.401950 -3.605701 -439.470197
v -332.571347 -3.605701 -389.735029
v 325.981784 -3.605701 -365.412805
v -402.840085 -3.605701 -281.645772
v 354.600559 -3.605701 -250.053220
v -361.506360 -3.605701 -182.048093
v 312.699436 -3.605701 -149.780347
v 257.295352 62.019798 -440.260274
v 331.198825 60.491180 -354.604116
v 345.506626 57.209587 -229.981260
v 315.289798 53.441887 -149.112150
v 214.741733 124.264389 -439.516599
v 283.326328 122.797966 -350.513200
v 302.342624 119.348328 -237.132726
v 298.670017 115.089905 -163.991590
v 148.338596 171.219574 -425.160276
v 204.619266 184.537109 -357.501024
v 253.532566 182.545700 -242.850171
v 265.730228 178.778015 -166.393247
v 98.468891 214.082397 -403.442289
v 134.476779 232.646103 -351.047716
v 186.726779 246.873306 -263.904592
v 228.701694 244.793152 -160.235151
v -255.695675 61.861473 -492.490827
v -347.987820 62.019798 -393.935697
v -428.312527 62.019798 -271.675069
v -366.201535 62.019798 -166.471326
v -212.771840 115.057343 -485.991132
v -309.202084 122.511414 -403.008046
v -398.115140 124.687866 -286.647016
v -361.506360 124.687866 -182.048093
v -147.365286 159.892075 -440.992582
v -214.990246 173.845078 -380.665822
v -320.226498 191.164749 -315.859780
v -330.089856 192.123932 -218.977720
v -109.953435 214.026337 -390.654966
v -156.654852 237.275345 -347.590715
v -232.533520 261.755951 -309.234847
v -272.616513 270.532288 -248.822294
vt 0.123717 0.167674
vt 0.265284 0.058801
vt 0.308710 0.108754
vt 0.183663 0.196705
vt 0.370454 0.019585
vt 0.390482 0.080805
vt 0.492989 0.000000
vt 0.544210 0.076596
vt 0.725031 0.049751
vt 0.761322 0.141400
vt 0.863822 0.140495
vt 0.853091 0.221655
vt 0.322950 0.172394
vt 0.213300 0.252922
vt 0.407898 0.140237
vt 0.598201 0.145232
vt 0.756282 0.204932
vt 0.815863 0.262400
vt 0.327376 0.258530
vt 0.242711 0.323148
vt 0.424415 0.219286
vt 0.602639 0.209930
vt 0.727641 0.254538
vt 0.768530 0.292195
vt 0.352069 0.342178
vt 0.293093 0.380501
vt 0.427211 0.316311
vt 0.538127 0.296630
vt 0.666900 0.293895
vt 0.714299 0.312448
vt 0.376666 0.401959
vt 0.336177 0.401033
vt 0.427603 0.393654
vt 0.493928 0.381479
vt 0.574430 0.366362
vt 0.645455 0.359552
vt 0.383401 0.451203
vt 0.338708 0.450228
vt 0.432378 0.451223
vt 0.491600 0.447953
vt 0.568576 0.437142
vt 0.638283 0.426481
vt 0.399447 0.493762
vt 0.354446 0.492305
vt 0.444292 0.501802
vt 0.493446 0.506566
vt 0.557453 0.503334
vt 0.620465 0.497340
vt 0.430117 0.536012
vt 0.383811 0.528128
vt 0.466069 0.543868
vt 0.502192 0.552366
vt 0.552753 0.551504
vt 0.608770 0.548954
vt 0.457496 0.578655
vt 0.415077 0.572628
vt 0.485696 0.585565
vt 0.512590 0.594143
vt 0.550596 0.595369
vt 0.599730 0.593466
vt 0.467469 0.622953
vt 0.449359 0.617563
vt 0.493736 0.629872
vt 0.517776 0.639796
vt 0.547060 0.642310
vt 0.591530 0.642079
vt 0.447917 0.677514
vt 0.405280 0.673811
vt 0.477724 0.686035
vt 0.508628 0.695514
vt 0.552626 0.694787
vt 0.612736 0.678924
vt 0.407590 0.753554
vt 0.362181 0.737467
vt 0.443491 0.766536
vt 0.485182 0.772689
vt 0.555563 0.761722
vt 0.637310 0.729823
vt 0.367789 0.825247
vt 0.317317 0.801176
vt 0.413220 0.838159
vt 0.471205 0.841970
vt 0.577514 0.821928
vt 0.686646 0.765329
vt 0.336574 0.874905
vt 0.271458 0.836609
vt 0.398883 0.895556
vt 0.472452 0.901924
vt 0.609684 0.871614
vt 0.743977 0.794889
vt 0.285162 0.920791
vt 0.207891 0.862034
vt 0.372251 0.954618
vt 0.478268 0.966051
vt 0.632905 0.929882
vt 0.782241 0.842651
vt 0.905643 0.722838
vt 0.860044 0.679752
vt 0.980145 0.588781
vt 0.926388 0.557562
vt 1.000000 0.419679
vt 0.936486 0.403892
vt 0.954014 0.263707
vt 0.902769 0.299008
vt 0.784660 0.667114
vt 0.850446 0.556762
vt 0.866163 0.425440
vt 0.853852 0.341272
vt 0.704370 0.651713
vt 0.753894 0.571146
vt 0.794204 0.445531
vt 0.794946 0.364423
vt 0.645357 0.623589
vt 0.673203 0.565744
vt 0.709844 0.474658
vt 0.732137 0.374778
vt 0.131021 0.777562
vt 0.199854 0.759850
vt 0.047251 0.647265
vt 0.100981 0.618508
vt 0.000000 0.464961
vt 0.058455 0.451422
vt 0.032755 0.303230
vt 0.096622 0.314958
vt 0.268224 0.735105
vt 0.174564 0.623463
vt 0.119692 0.471616
vt 0.146239 0.353191
vt 0.344040 0.683858
vt 0.279915 0.617483
vt 0.206697 0.512313
vt 0.204618 0.405647
vt 0.390090 0.628804
vt 0.355460 0.579565
vt 0.303750 0.514709
vt 0.281195 0.446413
vn -0.622685 -0.200576 0.756329
vn -0.480732 -0.265854 0.835594
vn -0.480149 0.008698 0.877144
vn -0.611489 0.000098 0.791253
vn -0.041740 -0.422163 0.905558
vn -0.059876 -0.079304 0.995051
vn 0.192854 -0.491619 0.849187
vn 0.166558 -0.262636 0.950411
vn 0.193879 -0.522263 0.830453
vn 0.253392 -0.334894 0.907545
vn 0.352598 -0.436067 0.827961
vn 0.603275 -0.194840 0.773367
vn -0.388168 0.469855 0.792819
vn -0.572423 0.372810 0.730304
vn -0.110156 0.452654 0.884856
vn 0.116315 0.211295 0.970477
vn 0.334798 0.023930 0.941986
vn 0.774017 0.159606 0.612718
vn -0.279224 0.595702 0.753109
vn -0.560335 0.539305 0.628630
vn -0.120518 0.656967 0.744224
vn 0.006795 0.550620 0.834728
vn 0.236559 0.361929 0.901691
vn 0.810538 0.360184 0.461840
vn -0.195559 0.522624 0.829832
vn -0.600216 0.568374 0.562754
vn -0.105492 0.619213 0.778105
vn -0.101160 0.643044 0.759119
vn -0.027502 0.585769 0.810012
vn 0.628799 0.650706 0.425668
vn -0.136567 0.767791 0.625976
vn -0.544337 0.650380 0.529815
vn 0.007921 0.787816 0.615860
vn 0.003209 0.824009 0.566567
vn -0.073765 0.838118 0.540478
vn 0.306147 0.893505 0.328516
vn -0.119506 0.989913 -0.076093
vn -0.646001 0.734090 -0.209271
vn 0.122678 0.992447 0.000503
vn 0.172021 0.985057 -0.008465
vn 0.089732 0.995359 -0.034772
vn 0.426015 0.893201 -0.143889
vn -0.105599 0.922338 -0.371675
vn -0.507546 0.570848 -0.645392
vn 0.082117 0.966260 -0.244130
vn 0.203130 0.963643 -0.173579
vn 0.142306 0.972630 -0.183686
vn 0.429855 0.847613 -0.311091
vn -0.117925 0.758821 -0.640535
vn -0.387625 0.442850 -0.808474
vn -0.040190 0.838610 -0.543248
vn 0.178488 0.903816 -0.388920
vn 0.169650 0.927222 -0.333884
vn 0.456879 0.763940 -0.455695
vn -0.164800 0.773947 -0.611430
vn -0.494001 0.449190 -0.744440
vn -0.212770 0.809358 -0.547420
vn 0.053871 0.931619 -0.359421
vn 0.215498 0.923107 -0.318487
vn 0.515487 0.724395 -0.457739
vn -0.255798 0.704515 -0.661987
vn -0.463951 0.638638 -0.613914
vn -0.447184 0.699233 -0.557764
vn -0.170601 0.782190 -0.599228
vn 0.242036 0.749003 -0.616777
vn 0.567771 0.611650 -0.550927
vn -0.306437 0.794972 -0.523562
vn -0.581416 0.740247 -0.337622
vn -0.407305 0.796925 -0.446109
vn -0.074311 0.796695 -0.599796
vn 0.268928 0.675268 -0.686798
vn 0.504641 0.661298 -0.554999
vn -0.331781 0.869922 -0.364906
vn -0.495034 0.843901 -0.206816
vn -0.266961 0.858903 -0.437056
vn 0.087214 0.801447 -0.591672
vn 0.323479 0.712778 -0.622342
vn 0.437218 0.702022 -0.562144
vn -0.444830 0.617840 -0.648382
vn -0.633798 0.661440 -0.400996
vn -0.268645 0.560409 -0.783436
vn 0.162164 0.493151 -0.854696
vn 0.420919 0.453243 -0.785747
vn 0.526398 0.495103 -0.691215
vn -0.480690 -0.033503 -0.876251
vn -0.769665 0.141089 -0.622664
vn -0.282301 -0.055299 -0.957731
vn 0.182242 -0.016024 -0.983123
vn 0.473614 0.029714 -0.880231
vn 0.587828 0.104384 -0.802223
vn -0.453141 -0.285487 -0.844488
vn -0.804592 -0.126850 -0.580122
vn -0.304321 -0.299002 -0.904426
vn 0.167848 -0.246819 -0.954415
vn 0.457705 -0.158041 -0.874945
vn 0.574753 -0.090465 -0.813311
vn 0.661341 -0.048678 -0.748504
vn 0.680703 0.214167 -0.700554
vn 0.882387 0.023907 -0.469917
vn 0.875161 0.325359 -0.358100
vn 0.998912 0.046097 0.007075
vn 0.950693 0.301900 0.070991
vn 0.829045 -0.163063 0.534878
vn 0.892269 0.076923 0.444903
vn 0.575472 0.572946 -0.583579
vn 0.707082 0.634274 -0.312620
vn 0.801565 0.595089 -0.057998
vn 0.890611 0.410322 0.196084
vn 0.488608 0.721453 -0.490681
vn 0.584645 0.717831 -0.378032
vn 0.732123 0.649761 -0.204468
vn 0.861892 0.506907 -0.013700
vn 0.590066 0.640589 -0.491394
vn 0.594025 0.659330 -0.460888
vn 0.660596 0.682245 -0.313297
vn 0.745077 0.657206 -0.113755
vn -0.794446 -0.142288 -0.590431
vn -0.791475 0.205035 -0.575785
vn -0.773639 -0.208559 -0.598319
vn -0.783825 0.082814 -0.615435
vn -0.946260 -0.285896 -0.151181
vn -0.997326 0.039918 -0.061208
vn -0.796168 -0.235952 0.557175
vn -0.805698 0.011724 0.592211
vn -0.553738 0.726232 -0.407383
vn -0.553939 0.582439 -0.594908
vn -0.820765 0.532713 -0.206304
vn -0.785800 0.430663 0.443901
vn -0.470214 0.797893 -0.377181
vn -0.346023 0.708432 -0.615136
vn -0.582705 0.680878 -0.443689
vn -0.768661 0.618991 0.161277
vn -0.580844 0.575206 -0.575985
vn -0.408412 0.488232 -0.771252
vn -0.515702 0.545924 -0.660316
vn -0.788143 0.604338 -0.116646
s 1
g pCube1
usemtl lambert2SG
f 1/1/1 2/2/2 8/3/3 7/4/4
f 2/2/2 3/5/5 9/6/6 8/3/3
f 3/5/5 4/7/7 10/8/8 9/6/6
f 4/7/7 5/9/9 11/10/10 10/8/8
f 5/9/9 6/11/11 12/12/12 11/10/10
f 7/4/4 8/3/3 14/13/13 13/14/14
f 8/3/3 9/6/6 15/15/15 14/13/13
f 9/6/6 10/8/8 16/16/16 15/15/15
f 10/8/8 11/10/10 17/17/17 16/16/16
f 11/10/10 12/12/12 18/18/18 17/17/17
f 13/14/14 14/13/13 20/19/19 19/20/20
f 14/13/13 15/15/15 21/21/21 20/19/19
f 15/15/15 16/16/16 22/22/22 21/21/21
f 16/16/16 17/17/17 23/23/23 22/22/22
f 17/17/17 18/18/18 24/24/24 23/23/23
f 19/20/20 20/19/19 26/25/25 25/26/26
f 20/19/19 21/21/21 27/27/27 26/25/25
f 21/21/21 22/22/22 28/28/28 27/27/27
f 22/22/22 23/23/23 29/29/29 28/28/28
f 23/23/23 24/24/24 30/30/30 29/29/29
f 25/26/26 26/25/25 32/31/31 31/32/32
f 26/25/25 27/27/27 33/33/33 32/31/31
f 27/27/27 28/28/28 34/34/34 33/33/33
f 28/28/28 29/29/29 35/35/35 34/34/34
f 29/29/29 30/30/30 36/36/36 35/35/35
f 31/32/32 32/31/31 38/37/37 37/38/38
f 32/31/31 33/33/33 39/39/39 38/37/37
f 33/33/33 34/34/34 40/40/40 39/39/39
f 34/34/34 35/35/35 41/41/41 40/40/40
f 35/35/35 36/36/36 42/42/42 41/41/41
f 37/38/38 38/37/37 44/43/43 43/44/44
f 38/37/37 39/39/39 45/45/45 44/43/43
f 39/39/39 40/40/40 46/46/46 45/45/45
f 40/40/40 41/41/41 47/47/47 46/46/46
f 41/41/41 42/42/42 48/48/48 47/47/47
f 43/44/44 44/43/43 50/49/49 49/50/50
f 44/43/43 45/45/45 51/51/51 50/49/49
f 45/45/45 46/46/46 52/52/52 51/51/51
f 46/46/46 47/47/47 53/53/53 52/52/52
f 47/47/47 48/48/48 54/54/54 53/53/53
f 49/50/50 50/49/49 56/55/55 55/56/56
f 50/49/49 51/51/51 57/57/57 56/55/55
f 51/51/51 52/52/52 58/58/58 57/57/57
f 52/52/52 53/53/53 59/59/59 58/58/58
f 53/53/53 54/54/54 60/60/60 59/59/59
f 55/56/56 56/55/55 62/61/61 61/62/62
f 56/55/55 57/57/57 63/63/63 62/61/61
f 57/57/57 58/58/58 64/64/64 63/63/63
f 58/58/58 59/59/59 65/65/65 64/64/64
f 59/59/59 60/60/60 66/66/66 65/65/65
f 61/62/62 62/61/61 68/67/67 67/68/68
f 62/61/61 63/63/63 69/69/69 68/67/67
f 63/63/63 64/64/64 70/70/70 69/69/69
f 64/64/64 65/65/65 71/71/71 70/70/70
f 65/65/65 66/66/66 72/72/72 71/71/71
f 67/68/68 68/67/67 74/73/73 73/74/74
f 68/67/67 69/69/69 75/75/75 74/73/73
f 69/69/69 70/70/70 76/76/76 75/75/75
f 70/70/70 71/71/71 77/77/77 76/76/76
f 71/71/71 72/72/72 78/78/78 77/77/77
f 73/74/74 74/73/73 80/79/79 79/80/80
f 74/73/73 75/75/75 81/81/81 80/79/79
f 75/75/75 76/76/76 82/82/82 81/81/81
f 76/76/76 77/77/77 83/83/83 82/82/82
f 77/77/77 78/78/78 84/84/84 83/83/83
f 79/80/80 80/79/79 86/85/85 85/86/86
f 80/79/79 81/81/81 87/87/87 86/85/85
f 81/81/81 82/82/82 88/88/88 87/87/87
f 82/82/82 83/83/83 89/89/89 88/88/88
f 83/83/83 84/84/84 90/90/90 89/89/89
f 85/86/86 86/85/85 92/91/91 91/92/92
f 86/85/85 87/87/87 93/93/93 92/91/91
f 87/87/87 88/88/88 94/94/94 93/93/93
f 88/88/88 89/89/89 95/95/95 94/94/94
f 89/89/89 90/90/90 96/96/96 95/95/95
f 98/97/97 96/96/96 90/90/90 105/98/98
f 100/99/99 98/97/97 105/98/98 106/100/100
f 102/101/101 100/99/99 106/100/100 107/102/102
f 104/103/103 102/101/101 107/102/102 108/104/104
f 6/11/11 104/103/103 108/104/104 12/12/12
f 105/98/98 90/90/90 84/84/84 109/105/105
f 106/100/100 105/98/98 109/105/105 110/106/106
f 107/102/102 106/100/100 110/106/106 111/107/107
f 108/104/104 107/102/102 111/107/107 112/108/108
f 12/12/12 108/104/104 112/108/108 18/18/18
f 109/105/105 84/84/84 78/78/78 113/109/109
f 110/106/106 109/105/105 113/109/109 114/110/110
f 111/107/107 110/106/106 114/110/110 115/111/111
f 112/108/108 111/107/107 115/111/111 116/112/112
f 18/18/18 112/108/108 116/112/112 24/24/24
f 113/109/109 78/78/78 72/72/72 117/113/113
f 114/110/110 113/109/109 117/113/113 118/114/114
f 115/111/111 114/110/110 118/114/114 119/115/115
f 116/112/112 115/111/111 119/115/115 120/116/116
f 24/24/24 116/112/112 120/116/116 30/30/30
f 117/113/113 72/72/72 66/66/66 60/60/60
f 118/114/114 117/113/113 60/60/60 54/54/54
f 119/115/115 118/114/114 54/54/54 48/48/48
f 120/116/116 119/115/115 48/48/48 42/42/42
f 30/30/30 120/116/116 42/42/42 36/36/36
f 91/92/92 97/117/117 121/118/118 85/86/86
f 97/117/117 99/119/119 122/120/120 121/118/118
f 99/119/119 101/121/121 123/122/122 122/120/120
f 101/121/121 103/123/123 124/124/124 123/122/122
f 103/123/123 1/1/1 7/4/4 124/124/124
f 85/86/86 121/118/118 125/125/125 79/80/80
f 121/118/118 122/120/120 126/126/126 125/125/125
f 122/120/120 123/122/122 127/127/127 126/126/126
f 123/122/122 124/124/124 128/128/128 127/127/127
f 124/124/124 7/4/4 13/14/14 128/128/128
f 79/80/80 125/125/125 129/129/129 73/74/74
f 125/125/125 126/126/126 130/130/130 129/129/129
f 126/126/126 127/127/127 131/131/131 130/130/130
f 127/127/127 128/128/128 132/132/132 131/131/131
f 128/128/128 13/14/14 19/20/20 132/132/132
f 73/74/74 129/129/129 133/133/133 67/68/68
f 129/129/129 130/130/130 134/134/134 133/133/133
f 130/130/130 131/131/131 135/135/135 134/134/134
f 131/131/131 132/132/132 136/136/136 135/135/135
f 132/132/132 19/20/20 25/26/26 136/136/136
f 67/68/68 133/133/133 55/56/56 61/62/62
f 133/133/133 134/134/134 49/50/50 55/56/56
f 134/134/134 135/135/135 43/44/44 49/50/50
f 135/135/135 136/136/136 37/38/38 43/44/44
f 136/136/136 25/26/26 31/32/32 37/38/38
